{"title":"I.Hope.They.Serve.Beer.in.Hell.2009.UNRATED.LIMITED.BRRip.480p.X","uid":6501560,"size":1195726667,"categoryP":"video","categoryS":"movies","magnet":"?xt=urn:btih:6e2e9b5be579fb47051b9d079dd95a0f42d564d2&amp;dn=I.Hope.They.Serve.Beer.in.Hell.2009.UNRATED.LIMITED.BRRip.480p.X&amp;tr=udp%3A%2F%2Ftracker.openbittorrent.com%3A80&amp;tr=udp%3A%2F%2Fopen.demonii.com%3A1337&amp;tr=udp%3A%2F%2Ftracker.coppersurfer.tk%3A6969&amp;tr=udp%3A%2F%2Fexodus.desync.com%3A6969","seeders":1,"leechers":0,"uploader":"TPBAgri","files":-1,"time":1309221600,"description":"\nGenre:Comedy\nLanguage:English\nIMDb:http://www.imdb.com/title/tt1220628/\nSource:UNRATED.LIMITED.720p.BluRay.X264-AMIABLE Thanks!\n\nFormat : AVI\nFormat/Info : Audio Video Interleave\nFile size : 1.11 GiB\nDuration : 1h 45mn\nOverall bit rate : 1 506 Kbps\n\nVideo\nID : 0\nFormat : MPEG-4 Visual\nFormat profile : Advanced Simple@L5\nFormat settings, BVOP : Yes\nFormat settings, QPel : No\nFormat settings, GMC : No warppoints\nFormat settings, Matrix : Default (H.263)\nCodec ID : XVID\nCodec ID/Hint : XviD\nDuration : 1h 45mn\nBit rate : 1 049 Kbps\nWidth : 640 pixels\nHeight : 272 pixels\nDisplay aspect ratio : 2.35:1\nFrame rate : 23.976 fps\nColor space : YUV\nChroma subsampling : 4:2:0\nBit depth : 8 bits\nScan type : Progressive\nBits/(Pixel*Frame) : 0.251\nStream size : 793 MiB (70%)\nWriting library : XviD 1.2.1 (UTC 2008-12-04)\n\nAudio\nID : 1\nFormat : AC-3\nFormat/Info : Audio Coding 3\nMode extension : CM (complete main)\nCodec ID : 2000\nDuration : 1h 45mn\nBit rate mode : Constant\nBit rate : 448 Kbps\nChannel(s) : 6 channels\nChannel positions : Front: L C R, Side: L R, LFE\nSampling rate : 48.0 KHz\nBit depth : 16 bits\nStream size : 339 MiB (30%)\nAlignment : Aligned on interleaves\nInterleave, duration : 42 ms (1.00 video frame)\nInterleave, preload duration : 512 ms\n\n\nPlot:\nA guy tries to patch things up with his soon-to-be-married pal after botching things up at his bachelor party. Based on Tucker Max's best-seller &quot;I Hope They Serve Beer in Hell&quot;.\n\n &lt;a href=&quot;\nhttp://leetleech.org/images/32623246115012029745.png&quot; rel=&quot;nofollow&quot; target=&quot;_NEW&quot;&gt;\nhttp://leetleech.org/images/32623246115012029745.png&lt;/a&gt;\n &lt;a href=&quot;\nhttp://leetleech.org/images/08032325917003103210.png&quot; rel=&quot;nofollow&quot; target=&quot;_NEW&quot;&gt;\nhttp://leetleech.org/images/08032325917003103210.png&lt;/a&gt;\n &lt;a href=&quot;\nhttp://leetleech.org/images/80582704184553202300.png&quot; rel=&quot;nofollow&quot; target=&quot;_NEW&quot;&gt;\nhttp://leetleech.org/images/80582704184553202300.png&lt;/a&gt;\n &lt;a href=&quot;\nhttp://leetleech.org/images/57454163906389277210.png&quot; rel=&quot;nofollow&quot; target=&quot;_NEW&quot;&gt;\nhttp://leetleech.org/images/57454163906389277210.png&lt;/a&gt;","torrent":{"xt":"urn:btih:6e2e9b5be579fb47051b9d079dd95a0f42d564d2","amp;dn":"I.Hope.They.Serve.Beer.in.Hell.2009.UNRATED.LIMITED.BRRip.480p.X","amp;tr":["udp%3A%2F%2Ftracker.openbittorrent.com%3A80","udp%3A%2F%2Fopen.demonii.com%3A1337","udp%3A%2F%2Ftracker.coppersurfer.tk%3A6969","udp%3A%2F%2Fexodus.desync.com%3A6969"],"infoHash":"6e2e9b5be579fb47051b9d079dd95a0f42d564d2","infoHashBuffer":{"type":"Buffer","data":[110,46,155,91,229,121,251,71,5,27,157,7,157,217,90,15,66,213,100,210]},"announce":[],"urlList":[]}}